<svg xmlns="http://www.w3.org/2000/svg" viewBox="0 0 390 620" width="390" height="620" font-family="'Segoe UI','Pretendard','Apple SD Gothic Neo','Malgun Gothic',sans-serif">
<title>WF-04 모바일 (목록 탭)</title>
<defs>
<linearGradient id="bg" x1="0" y1="0" x2="1" y2="1"><stop offset="0" stop-color="#0f172a"/><stop offset=".45" stop-color="#1e293b"/><stop offset="1" stop-color="#312e81"/></linearGradient>
<linearGradient id="btn" x1="0" y1="0" x2="1" y2="1"><stop offset="0" stop-color="#4f46e5"/><stop offset="1" stop-color="#06b6d4"/></linearGradient>
<filter id="sh" x="-5%" y="-5%" width="110%" height="115%"><feDropShadow dx="0" dy="10" stdDeviation="14" flood-color="#000" flood-opacity=".3"/></filter>
</defs>
<rect width="390" height="620" fill="url(#bg)"/>
<rect x="0" y="0" width="390" height="52" rx="0" fill="#ffffff" fill-opacity=".05"/><text x="20" y="33" font-size="18" font-weight="800" fill="#a5b4fc" text-anchor="start">cal-todo</text><rect x="350" y="20" width="20" height="2" rx="1" fill="#e0e7ff" /><rect x="350" y="26" width="20" height="2" rx="1" fill="#e0e7ff" /><rect x="350" y="32" width="20" height="2" rx="1" fill="#e0e7ff" /><rect x="20" y="68" width="64" height="32" rx="16" fill="url(#btn)" /><text x="52" y="89" font-size="13" font-weight="700" fill="#fff" text-anchor="middle">목록</text><rect x="92" y="68" width="76" height="32" rx="16" fill="none" stroke="#94a3b8" stroke-opacity=".4"/><text x="130" y="89" font-size="13" font-weight="400" fill="#cbd5e1" text-anchor="middle">캘린더</text><rect x="20" y="112" width="350" height="38" rx="12" fill="url(#btn)" /><text x="195" y="136" font-size="14" font-weight="700" fill="#fff" text-anchor="middle">+ 할일 등록</text><text x="20" y="172" font-size="12" font-weight="700" fill="#94a3b8" text-anchor="start">카테고리</text><rect x="20" y="178" width="350" height="34" rx="8" fill="#ffffff" stroke="#cbd5e1" /><text x="32" y="200" font-size="14" font-weight="400" fill="#0f172a" text-anchor="start">전체</text><text x="356" y="200" font-size="14" font-weight="400" fill="#64748b" text-anchor="end">▾</text><text x="20" y="232" font-size="12" font-weight="700" fill="#94a3b8" text-anchor="start">상태</text><rect x="20" y="238" width="350" height="34" rx="8" fill="#ffffff" stroke="#cbd5e1" /><text x="32" y="260" font-size="14" font-weight="400" fill="#0f172a" text-anchor="start">전체</text><text x="356" y="260" font-size="14" font-weight="400" fill="#64748b" text-anchor="end">▾</text><rect x="20" y="290" width="350" height="116" rx="18" fill="#ffffff" filter="url(#sh)"/><rect x="36" y="308" width="18" height="18" rx="4" fill="#ffffff" stroke="#cbd5e1" /><text x="64" y="323" font-size="15" font-weight="700" fill="#0f172a" text-anchor="start">보고서 작성</text><text x="36" y="352" font-size="13" font-weight="400" fill="#475569" text-anchor="start">업무  |  09-30 ~ 10-02</text><rect x="36" y="368" width="72" height="22" rx="8" fill="#eef2ff" /><text x="72" y="383" font-size="12" font-weight="700" fill="#4338ca" text-anchor="middle">진행중</text><rect x="226" y="364" width="64" height="28" rx="8" fill="#ffffff" stroke="#cbd5e1" /><text x="258" y="383" font-size="13" font-weight="600" fill="#475569" text-anchor="middle">수정</text><rect x="298" y="364" width="64" height="28" rx="8" fill="#ffffff" stroke="#fca5a5" /><text x="330" y="383" font-size="13" font-weight="600" fill="#b91c1c" text-anchor="middle">삭제</text><rect x="20" y="420" width="350" height="116" rx="18" fill="#ffffff" filter="url(#sh)"/><rect x="36" y="438" width="18" height="18" rx="4" fill="#ffffff" stroke="#cbd5e1" /><text x="64" y="453" font-size="15" font-weight="700" fill="#0f172a" text-anchor="start">회의 준비</text><text x="36" y="482" font-size="13" font-weight="400" fill="#475569" text-anchor="start">업무  |  10-03 ~ 10-05</text><rect x="36" y="498" width="72" height="22" rx="8" fill="#f1f5f9" /><text x="72" y="513" font-size="12" font-weight="700" fill="#475569" text-anchor="middle">시작 전</text><rect x="226" y="494" width="64" height="28" rx="8" fill="#ffffff" stroke="#cbd5e1" /><text x="258" y="513" font-size="13" font-weight="600" fill="#475569" text-anchor="middle">수정</text><rect x="298" y="494" width="64" height="28" rx="8" fill="#ffffff" stroke="#fca5a5" /><text x="330" y="513" font-size="13" font-weight="600" fill="#b91c1c" text-anchor="middle">삭제</text><text x="20" y="572" font-size="13" font-weight="400" fill="#94a3b8" text-anchor="start">표는 카드 형태의 세로 목록으로 변경</text><text x="20" y="592" font-size="13" font-weight="400" fill="#94a3b8" text-anchor="start">상태 필터는 드롭다운이어도 &quot;하나만 선택&quot; 규칙 동일</text>
</svg>
