<svg xmlns="http://www.w3.org/2000/svg" viewBox="0 0 960 600" width="960" height="600" font-family="'Segoe UI','Pretendard','Apple SD Gothic Neo','Malgun Gothic',sans-serif">
<title>WF-05 할일 조회 - 캘린더 탭</title>
<defs>
<linearGradient id="bg" x1="0" y1="0" x2="1" y2="1"><stop offset="0" stop-color="#0f172a"/><stop offset=".45" stop-color="#1e293b"/><stop offset="1" stop-color="#312e81"/></linearGradient>
<linearGradient id="btn" x1="0" y1="0" x2="1" y2="1"><stop offset="0" stop-color="#4f46e5"/><stop offset="1" stop-color="#06b6d4"/></linearGradient>
<filter id="sh" x="-5%" y="-5%" width="110%" height="115%"><feDropShadow dx="0" dy="10" stdDeviation="14" flood-color="#000" flood-opacity=".3"/></filter>
</defs>
<rect width="960" height="600" fill="url(#bg)"/>
<rect x="0" y="0" width="960" height="56" fill="#ffffff" fill-opacity=".05"/><line x1="0" y1="56" x2="960" y2="56" stroke="#ffffff" stroke-opacity=".08"/>
<text x="40" y="35" font-size="20" font-weight="800" fill="#a5b4fc">cal-todo</text>
<text x="150" y="35" font-size="14" font-weight="700" fill="#e0e7ff">할일</text>
<text x="220" y="35" font-size="14" font-weight="400" fill="#94a3b8">카테고리</text>
<text x="310" y="35" font-size="14" font-weight="400" fill="#94a3b8">내 정보</text>
<text x="920" y="35" font-size="14" fill="#94a3b8" text-anchor="end">로그아웃</text>
<rect x="40" y="76" width="70" height="34" rx="17" fill="none" stroke="#94a3b8" stroke-opacity=".4"/><text x="75" y="98" font-size="14" fill="#cbd5e1" text-anchor="middle">목록</text>
<rect x="118" y="76" width="84" height="34" rx="17" fill="url(#btn)"/><text x="160" y="98" font-size="14" font-weight="700" fill="#fff" text-anchor="middle">캘린더</text>
<rect x="780" y="76" width="140" height="34" rx="12" fill="url(#btn)"/><text x="850" y="98" font-size="14" font-weight="700" fill="#fff" text-anchor="middle">+ 할일 등록</text>
<rect x="40" y="130" width="880" height="400" rx="18" fill="#ffffff" filter="url(#sh)"/>
<text x="480" y="170" font-size="20" font-weight="700" fill="#0f172a" text-anchor="middle">2026년 9월</text>
<circle cx="360" cy="163" r="15" fill="#eef2ff"/><text x="360" y="169" font-size="16" font-weight="700" fill="#4338ca" text-anchor="middle">&lt;</text>
<circle cx="600" cy="163" r="15" fill="#eef2ff"/><text x="600" y="169" font-size="16" font-weight="700" fill="#4338ca" text-anchor="middle">&gt;</text>
<text x="120.0" y="216" font-size="13" font-weight="700" fill="#ef4444" text-anchor="middle">일</text>
<text x="240.0" y="216" font-size="13" font-weight="700" fill="#64748b" text-anchor="middle">월</text>
<text x="360.0" y="216" font-size="13" font-weight="700" fill="#64748b" text-anchor="middle">화</text>
<text x="480.0" y="216" font-size="13" font-weight="700" fill="#64748b" text-anchor="middle">수</text>
<text x="600.0" y="216" font-size="13" font-weight="700" fill="#64748b" text-anchor="middle">목</text>
<text x="720.0" y="216" font-size="13" font-weight="700" fill="#64748b" text-anchor="middle">금</text>
<text x="840.0" y="216" font-size="13" font-weight="700" fill="#3b82f6" text-anchor="middle">토</text>
<line x1="60" y1="228" x2="900" y2="228" stroke="#e2e8f0"/>
<rect x="60" y="228" width="120" height="58" fill="none" stroke="#e2e8f0"/>
<text x="68" y="246" font-size="12" font-weight="600" fill="#cbd5e1">30</text>
<rect x="180" y="228" width="120" height="58" fill="none" stroke="#e2e8f0"/>
<text x="188" y="246" font-size="12" font-weight="600" fill="#cbd5e1">31</text>
<rect x="300" y="228" width="120" height="58" fill="none" stroke="#e2e8f0"/>
<text x="308" y="246" font-size="12" font-weight="600" fill="#0f172a">1</text>
<rect x="420" y="228" width="120" height="58" fill="none" stroke="#e2e8f0"/>
<text x="428" y="246" font-size="12" font-weight="600" fill="#0f172a">2</text>
<rect x="540" y="228" width="120" height="58" fill="none" stroke="#e2e8f0"/>
<text x="548" y="246" font-size="12" font-weight="600" fill="#0f172a">3</text>
<rect x="660" y="228" width="120" height="58" fill="none" stroke="#e2e8f0"/>
<text x="668" y="246" font-size="12" font-weight="600" fill="#0f172a">4</text>
<rect x="780" y="228" width="120" height="58" fill="none" stroke="#e2e8f0"/>
<text x="788" y="246" font-size="12" font-weight="600" fill="#3b82f6">5</text>
<rect x="60" y="286" width="120" height="58" fill="none" stroke="#e2e8f0"/>
<text x="68" y="304" font-size="12" font-weight="600" fill="#ef4444">6</text>
<rect x="180" y="286" width="120" height="58" fill="none" stroke="#e2e8f0"/>
<text x="188" y="304" font-size="12" font-weight="600" fill="#0f172a">7</text>
<rect x="300" y="286" width="120" height="58" fill="none" stroke="#e2e8f0"/>
<text x="308" y="304" font-size="12" font-weight="600" fill="#0f172a">8</text>
<rect x="420" y="286" width="120" height="58" fill="none" stroke="#e2e8f0"/>
<text x="428" y="304" font-size="12" font-weight="600" fill="#0f172a">9</text>
<rect x="540" y="286" width="120" height="58" fill="none" stroke="#e2e8f0"/>
<text x="548" y="304" font-size="12" font-weight="600" fill="#0f172a">10</text>
<rect x="660" y="286" width="120" height="58" fill="none" stroke="#e2e8f0"/>
<text x="668" y="304" font-size="12" font-weight="600" fill="#0f172a">11</text>
<rect x="780" y="286" width="120" height="58" fill="none" stroke="#e2e8f0"/>
<text x="788" y="304" font-size="12" font-weight="600" fill="#3b82f6">12</text>
<rect x="60" y="344" width="120" height="58" fill="none" stroke="#e2e8f0"/>
<text x="68" y="362" font-size="12" font-weight="600" fill="#ef4444">13</text>
<rect x="180" y="344" width="120" height="58" fill="none" stroke="#e2e8f0"/>
<text x="188" y="362" font-size="12" font-weight="600" fill="#0f172a">14</text>
<rect x="300" y="344" width="120" height="58" fill="none" stroke="#e2e8f0"/>
<text x="308" y="362" font-size="12" font-weight="600" fill="#0f172a">15</text>
<rect x="420" y="344" width="120" height="58" fill="none" stroke="#e2e8f0"/>
<text x="428" y="362" font-size="12" font-weight="600" fill="#0f172a">16</text>
<rect x="540" y="344" width="120" height="58" fill="none" stroke="#e2e8f0"/>
<text x="548" y="362" font-size="12" font-weight="600" fill="#0f172a">17</text>
<rect x="660" y="344" width="120" height="58" fill="none" stroke="#e2e8f0"/>
<text x="668" y="362" font-size="12" font-weight="600" fill="#0f172a">18</text>
<rect x="780" y="344" width="120" height="58" fill="none" stroke="#e2e8f0"/>
<text x="788" y="362" font-size="12" font-weight="600" fill="#3b82f6">19</text>
<rect x="60" y="402" width="120" height="58" fill="none" stroke="#e2e8f0"/>
<text x="68" y="420" font-size="12" font-weight="600" fill="#ef4444">20</text>
<rect x="180" y="402" width="120" height="58" fill="none" stroke="#e2e8f0"/>
<text x="188" y="420" font-size="12" font-weight="600" fill="#0f172a">21</text>
<rect x="300" y="402" width="120" height="58" fill="none" stroke="#e2e8f0"/>
<text x="308" y="420" font-size="12" font-weight="600" fill="#0f172a">22</text>
<rect x="420" y="402" width="120" height="58" fill="none" stroke="#e2e8f0"/>
<text x="428" y="420" font-size="12" font-weight="600" fill="#0f172a">23</text>
<rect x="540" y="402" width="120" height="58" fill="none" stroke="#e2e8f0"/>
<text x="548" y="420" font-size="12" font-weight="600" fill="#0f172a">24</text>
<rect x="660" y="402" width="120" height="58" fill="none" stroke="#e2e8f0"/>
<text x="668" y="420" font-size="12" font-weight="600" fill="#0f172a">25</text>
<rect x="780" y="402" width="120" height="58" fill="none" stroke="#e2e8f0"/>
<text x="788" y="420" font-size="12" font-weight="600" fill="#3b82f6">26</text>
<rect x="60" y="460" width="120" height="58" fill="none" stroke="#e2e8f0"/>
<text x="68" y="478" font-size="12" font-weight="600" fill="#ef4444">27</text>
<rect x="180" y="460" width="120" height="58" fill="none" stroke="#e2e8f0"/>
<text x="188" y="478" font-size="12" font-weight="600" fill="#0f172a">28</text>
<rect x="300" y="460" width="120" height="58" fill="none" stroke="#e2e8f0"/>
<text x="308" y="478" font-size="12" font-weight="600" fill="#0f172a">29</text>
<rect x="306" y="486" width="108" height="22" rx="6" fill="#eef2ff"/><text x="360.0" y="501" font-size="12" font-weight="600" fill="#4338ca" text-anchor="middle">청구서 제출</text>
<rect x="420" y="460" width="120" height="58" fill="none" stroke="#e2e8f0"/>
<text x="428" y="478" font-size="12" font-weight="600" fill="#0f172a">30</text>
<rect x="426" y="486" width="108" height="22" rx="6" fill="#eef2ff"/><text x="480.0" y="501" font-size="12" font-weight="600" fill="#4338ca" text-anchor="middle">보고서 작성</text>
<rect x="540" y="460" width="120" height="58" fill="none" stroke="#e2e8f0"/>
<text x="548" y="478" font-size="12" font-weight="600" fill="#cbd5e1">1</text>
<rect x="660" y="460" width="120" height="58" fill="none" stroke="#e2e8f0"/>
<text x="668" y="478" font-size="12" font-weight="600" fill="#cbd5e1">2</text>
<rect x="780" y="460" width="120" height="58" fill="none" stroke="#e2e8f0"/>
<text x="788" y="478" font-size="12" font-weight="600" fill="#cbd5e1">3</text>
<text x="40" y="558" font-size="13" fill="#94a3b8">여러 날 할일은 시작~종료 각 날짜 셀에 표시</text>
<text x="40" y="578" font-size="13" fill="#94a3b8">필터 미적용, 날짜 셀 클릭 시 해당 일 할일 팝업 (바깥 클릭·Esc·닫기로 닫음)</text>
<text x="920" y="558" font-size="13" fill="#64748b" text-anchor="end">WF-05 · FR-06 · BR-02 · S-07, E-05</text>
</svg>
